<mxfile host="app.diagrams.net" modified="2020-12-07T19:58:43.277Z" agent="5.0 (Macintosh; Intel Mac OS X 10_15_6) AppleWebKit/537.36 (KHTML, like Gecko) Chrome/87.0.4280.88 Safari/537.36" etag="YzhzlwiqXjdR42OU5hNt" version="13.11.0" type="github">
  <diagram name="Page-1" id="efa7a0a1-bf9b-a30e-e6df-94a7791c09e9">
    <mxGraphModel dx="818" dy="511" grid="1" gridSize="10" guides="1" tooltips="1" connect="1" arrows="1" fold="1" page="1" pageScale="1" pageWidth="826" pageHeight="1169" background="#ffffff" math="0" shadow="0">
      <root>
        <mxCell id="0" />
        <mxCell id="1" parent="0" />
        <mxCell id="VF1F4Plbv53C-rskRq-l-116" style="edgeStyle=orthogonalEdgeStyle;rounded=0;orthogonalLoop=1;jettySize=auto;html=1;exitX=1;exitY=0.25;exitDx=0;exitDy=0;entryX=0.447;entryY=1;entryDx=0;entryDy=0;entryPerimeter=0;" edge="1" parent="1" source="28" target="VF1F4Plbv53C-rskRq-l-115">
          <mxGeometry relative="1" as="geometry">
            <mxPoint x="300" y="410" as="targetPoint" />
          </mxGeometry>
        </mxCell>
        <mxCell id="VF1F4Plbv53C-rskRq-l-126" style="edgeStyle=orthogonalEdgeStyle;rounded=0;orthogonalLoop=1;jettySize=auto;html=1;exitX=1;exitY=0.5;exitDx=0;exitDy=0;entryX=0.5;entryY=1;entryDx=0;entryDy=0;" edge="1" parent="1" source="28" target="VF1F4Plbv53C-rskRq-l-125">
          <mxGeometry relative="1" as="geometry">
            <Array as="points">
              <mxPoint x="200" y="560" />
              <mxPoint x="615" y="560" />
            </Array>
          </mxGeometry>
        </mxCell>
        <mxCell id="28" value="&lt;p style=&quot;margin: 0px ; margin-top: 4px ; text-align: center ; text-decoration: underline&quot;&gt;&lt;strong&gt;FullBracket&lt;/strong&gt;&lt;/p&gt;&lt;hr&gt;&lt;p style=&quot;margin: 0px ; margin-left: 8px&quot;&gt;enableDebugMode&lt;/p&gt;&lt;p style=&quot;margin: 0px ; margin-left: 8px&quot;&gt;useRealCard&lt;/p&gt;&lt;p style=&quot;margin: 0px ; margin-left: 8px&quot;&gt;variant&lt;/p&gt;&lt;p style=&quot;margin: 0px ; margin-left: 8px&quot;&gt;bracketData&lt;/p&gt;&lt;p style=&quot;margin: 0px ; margin-left: 8px&quot;&gt;autoFillData&lt;/p&gt;&lt;p style=&quot;margin: 0px ; margin-left: 8px&quot;&gt;onClearPicks&lt;/p&gt;&lt;p style=&quot;margin: 0px ; margin-left: 8px&quot;&gt;onSavePicks&lt;/p&gt;&lt;p style=&quot;margin: 0px ; margin-left: 8px&quot;&gt;onFacebookClick&lt;/p&gt;&lt;p style=&quot;margin: 0px ; margin-left: 8px&quot;&gt;onTwitterClick&lt;/p&gt;&lt;p style=&quot;margin: 0px ; margin-left: 8px&quot;&gt;onPrintClick&lt;/p&gt;&lt;p style=&quot;margin: 0px ; margin-left: 8px&quot;&gt;matchUpAnalysisData&lt;/p&gt;&lt;p style=&quot;margin: 0px ; margin-left: 8px&quot;&gt;onMatchUpAnalysisClick&lt;/p&gt;&lt;p style=&quot;margin: 0px ; margin-left: 8px&quot;&gt;onItemClick&lt;/p&gt;&lt;p style=&quot;margin: 0px ; margin-left: 8px&quot;&gt;useLocalStorageForPicks&lt;/p&gt;&lt;p style=&quot;margin: 0px ; margin-left: 8px&quot;&gt;gameInstanceUid&lt;/p&gt;&lt;p style=&quot;margin: 0px ; margin-left: 8px&quot;&gt;environment&lt;/p&gt;" style="verticalAlign=top;align=left;overflow=fill;fontSize=12;fontFamily=Helvetica;html=1;strokeColor=#003366;shadow=1;fillColor=#D4E1F5;fontColor=#003366" parent="1" vertex="1">
          <mxGeometry x="40" y="480" width="160" height="260" as="geometry" />
        </mxCell>
        <mxCell id="VF1F4Plbv53C-rskRq-l-115" value="&lt;p style=&quot;margin: 4px 0px 0px ; text-align: center ; text-decoration: underline ; font-size: 11px&quot;&gt;&lt;strong&gt;&lt;font style=&quot;font-size: 11px&quot;&gt;pickUtils&lt;/font&gt;&lt;/strong&gt;&lt;/p&gt;&lt;hr style=&quot;font-size: 11px&quot;&gt;&lt;div style=&quot;color: rgb(212 , 212 , 212) ; background-color: rgb(30 , 30 , 30) ; font-family: &amp;#34;menlo&amp;#34; , &amp;#34;monaco&amp;#34; , &amp;#34;courier new&amp;#34; , monospace ; line-height: 18px ; font-size: 11px&quot;&gt;&lt;div&gt;&lt;font style=&quot;font-size: 11px&quot;&gt;&lt;span style=&quot;color: #9cdcfe&quot;&gt;needsSave&lt;/span&gt; = &lt;span style=&quot;color: #569cd6&quot;&gt;false&lt;/span&gt;&lt;/font&gt;&lt;/div&gt;&lt;div&gt;&lt;font style=&quot;font-size: 11px&quot;&gt;&lt;span style=&quot;color: #9cdcfe&quot;&gt;logger&lt;/span&gt;: &lt;span style=&quot;color: #4ec9b0&quot;&gt;any&lt;/span&gt;&lt;/font&gt;&lt;/div&gt;&lt;div&gt;&lt;font style=&quot;font-size: 11px&quot;&gt;&lt;span style=&quot;color: #9cdcfe&quot;&gt;cacheValue&lt;/span&gt; = &lt;span style=&quot;color: #ce9178&quot;&gt;&quot;&quot;&lt;/span&gt;&lt;/font&gt;&lt;/div&gt;&lt;div&gt;&lt;font style=&quot;font-size: 11px&quot;&gt;&lt;span style=&quot;color: #9cdcfe&quot;&gt;picks&lt;/span&gt;: &lt;span style=&quot;color: #4ec9b0&quot;&gt;IPickUtilsPicks&lt;/span&gt; = []&lt;/font&gt;&lt;/div&gt;&lt;div&gt;&lt;font style=&quot;font-size: 11px&quot;&gt;&lt;span style=&quot;color: #9cdcfe&quot;&gt;events&lt;/span&gt;: &lt;span style=&quot;color: #4ec9b0&quot;&gt;IPickUtilsEvent&lt;/span&gt;[] = []&lt;/font&gt;&lt;/div&gt;&lt;div&gt;&lt;font style=&quot;font-size: 11px&quot;&gt;&lt;span style=&quot;color: #9cdcfe&quot;&gt;matchups&lt;/span&gt;: &lt;span style=&quot;color: #4ec9b0&quot;&gt;IBracketUtilMatchup&lt;/span&gt;[] = []&lt;/font&gt;&lt;/div&gt;&lt;div&gt;&lt;font style=&quot;font-size: 11px&quot;&gt;&lt;span style=&quot;color: #9cdcfe&quot;&gt;teams&lt;/span&gt;: &lt;span style=&quot;color: #4ec9b0&quot;&gt;IPickUtilsTeam&lt;/span&gt;[] = []&lt;/font&gt;&lt;/div&gt;&lt;div&gt;&lt;font style=&quot;font-size: 11px&quot;&gt;&lt;span style=&quot;color: #9cdcfe&quot;&gt;changes&lt;/span&gt; = [] &lt;span style=&quot;color: #c586c0&quot;&gt;as&lt;/span&gt; &lt;span style=&quot;color: #4ec9b0&quot;&gt;IPickUtilsPicks&lt;/span&gt;&lt;/font&gt;&lt;/div&gt;&lt;div&gt;&lt;font style=&quot;font-size: 11px&quot;&gt;&lt;span style=&quot;color: #9cdcfe&quot;&gt;merged&lt;/span&gt; = [] &lt;span style=&quot;color: #c586c0&quot;&gt;as&lt;/span&gt; &lt;span style=&quot;color: #4ec9b0&quot;&gt;IPickUtilsPicks&lt;/span&gt;&lt;/font&gt;&lt;/div&gt;&lt;div&gt;&lt;font style=&quot;font-size: 11px&quot;&gt;&lt;span style=&quot;color: #9cdcfe&quot;&gt;filteredEvents&lt;/span&gt; = [] &lt;span style=&quot;color: #c586c0&quot;&gt;as&lt;/span&gt; &lt;span style=&quot;color: #4ec9b0&quot;&gt;IPickUtilsEvent&lt;/span&gt;[]&lt;/font&gt;&lt;/div&gt;&lt;div&gt;&lt;font style=&quot;font-size: 11px&quot;&gt;&lt;span style=&quot;color: #9cdcfe&quot;&gt;bracketUtils&lt;/span&gt;: &lt;span style=&quot;color: #4ec9b0&quot;&gt;BracketUtils&lt;/span&gt;&lt;/font&gt;&lt;/div&gt;&lt;div&gt;&lt;font style=&quot;font-size: 11px&quot;&gt;&lt;span style=&quot;color: #9cdcfe&quot;&gt;bracketPeriodTree&lt;/span&gt;: &lt;span style=&quot;color: #4ec9b0&quot;&gt;IBracketTree&lt;/span&gt; | &lt;span style=&quot;color: #4ec9b0&quot;&gt;undefined&lt;/span&gt;&lt;/font&gt;&lt;/div&gt;&lt;div&gt;&lt;font style=&quot;font-size: 11px&quot;&gt;&lt;span style=&quot;color: #9cdcfe&quot;&gt;bracketMapping&lt;/span&gt;: &lt;span style=&quot;color: #4ec9b0&quot;&gt;IBracketKeyValMapping&lt;/span&gt; | &lt;span style=&quot;color: #4ec9b0&quot;&gt;undefined&lt;/span&gt;&lt;/font&gt;&lt;/div&gt;&lt;div&gt;&lt;font style=&quot;font-size: 11px&quot;&gt;&lt;span style=&quot;color: #9cdcfe&quot;&gt;home&lt;/span&gt; = &lt;span style=&quot;color: #4fc1ff&quot;&gt;homeValue&lt;/span&gt;&lt;/font&gt;&lt;/div&gt;&lt;div&gt;&lt;font style=&quot;font-size: 11px&quot;&gt;&lt;span style=&quot;color: #9cdcfe&quot;&gt;away&lt;/span&gt; = &lt;span style=&quot;color: #4fc1ff&quot;&gt;awayValue&lt;/span&gt;&lt;/font&gt;&lt;/div&gt;&lt;div&gt;&lt;font style=&quot;font-size: 11px&quot;&gt;&lt;span style=&quot;color: #dcdcaa&quot;&gt;getKeyFor&lt;/span&gt; = &lt;span style=&quot;color: #dcdcaa&quot;&gt;getKeyFor&lt;/span&gt;&lt;/font&gt;&lt;/div&gt;&lt;div&gt;&lt;font style=&quot;font-size: 11px&quot;&gt;&lt;span style=&quot;color: #9cdcfe&quot;&gt;period&lt;/span&gt;: &lt;span style=&quot;color: #4ec9b0&quot;&gt;IPickUtilsPeriod&lt;/span&gt;&lt;/font&gt;&lt;/div&gt;&lt;div&gt;&lt;font style=&quot;font-size: 11px&quot;&gt;&lt;span style=&quot;color: rgb(156 , 220 , 254)&quot;&gt;picksCacheKey&lt;/span&gt; = &lt;span style=&quot;color: rgb(206 , 145 , 120)&quot;&gt;&quot;&quot;&lt;/span&gt;&lt;/font&gt;&lt;/div&gt;&lt;/div&gt;" style="verticalAlign=top;align=left;overflow=fill;fontSize=12;fontFamily=Helvetica;html=1;strokeColor=#003366;shadow=1;fillColor=#D4E1F5;fontColor=#003366" vertex="1" parent="1">
          <mxGeometry x="200" y="50" width="250" height="355" as="geometry" />
        </mxCell>
        <mxCell id="VF1F4Plbv53C-rskRq-l-117" value="currentPickUtils" style="text;html=1;strokeColor=none;fillColor=none;align=center;verticalAlign=middle;whiteSpace=wrap;rounded=0;" vertex="1" parent="1">
          <mxGeometry x="230" y="520.0000000000001" width="40" height="20" as="geometry" />
        </mxCell>
        <mxCell id="VF1F4Plbv53C-rskRq-l-123" value="" style="edgeStyle=orthogonalEdgeStyle;rounded=0;orthogonalLoop=1;jettySize=auto;html=1;" edge="1" parent="1" source="VF1F4Plbv53C-rskRq-l-121">
          <mxGeometry relative="1" as="geometry">
            <mxPoint x="410" y="550" as="targetPoint" />
          </mxGeometry>
        </mxCell>
        <mxCell id="VF1F4Plbv53C-rskRq-l-121" value="bundle&amp;nbsp;" style="text;html=1;strokeColor=none;fillColor=none;align=center;verticalAlign=middle;whiteSpace=wrap;rounded=0;" vertex="1" parent="1">
          <mxGeometry x="330" y="540" width="40" height="20" as="geometry" />
        </mxCell>
        <mxCell id="VF1F4Plbv53C-rskRq-l-124" value="&lt;span style=&quot;color: rgb(220 , 220 , 170) ; background-color: rgb(30 , 30 , 30) ; font-family: &amp;#34;menlo&amp;#34; , &amp;#34;monaco&amp;#34; , &amp;#34;courier new&amp;#34; , monospace&quot;&gt;convertSdfBracketToMatchups&lt;/span&gt;&amp;nbsp;" style="text;html=1;strokeColor=none;fillColor=none;align=center;verticalAlign=middle;whiteSpace=wrap;rounded=0;" vertex="1" parent="1">
          <mxGeometry x="500" y="535" width="40" height="30" as="geometry" />
        </mxCell>
        <mxCell id="VF1F4Plbv53C-rskRq-l-127" style="edgeStyle=orthogonalEdgeStyle;rounded=0;orthogonalLoop=1;jettySize=auto;html=1;exitX=1;exitY=0.25;exitDx=0;exitDy=0;" edge="1" parent="1" source="VF1F4Plbv53C-rskRq-l-125">
          <mxGeometry relative="1" as="geometry">
            <mxPoint x="850" y="87.62068965517244" as="targetPoint" />
          </mxGeometry>
        </mxCell>
        <mxCell id="VF1F4Plbv53C-rskRq-l-128" style="edgeStyle=orthogonalEdgeStyle;rounded=0;orthogonalLoop=1;jettySize=auto;html=1;exitX=1;exitY=0.5;exitDx=0;exitDy=0;" edge="1" parent="1" source="VF1F4Plbv53C-rskRq-l-125">
          <mxGeometry relative="1" as="geometry">
            <mxPoint x="850" y="124.86206896551721" as="targetPoint" />
          </mxGeometry>
        </mxCell>
        <mxCell id="VF1F4Plbv53C-rskRq-l-129" style="edgeStyle=orthogonalEdgeStyle;rounded=0;orthogonalLoop=1;jettySize=auto;html=1;exitX=1;exitY=0.75;exitDx=0;exitDy=0;" edge="1" parent="1" source="VF1F4Plbv53C-rskRq-l-125">
          <mxGeometry relative="1" as="geometry">
            <mxPoint x="850" y="162.79310344827593" as="targetPoint" />
          </mxGeometry>
        </mxCell>
        <mxCell id="VF1F4Plbv53C-rskRq-l-125" value="&lt;p style=&quot;margin: 4px 0px 0px ; text-align: center ; text-decoration: underline ; font-size: 11px&quot;&gt;&lt;strong&gt;&lt;font style=&quot;font-size: 11px&quot;&gt;pickUtils&lt;/font&gt;&lt;/strong&gt;&lt;/p&gt;&lt;hr style=&quot;font-size: 11px&quot;&gt;&lt;div style=&quot;background-color: rgb(30 , 30 , 30) ; font-family: &amp;#34;menlo&amp;#34; , &amp;#34;monaco&amp;#34; , &amp;#34;courier new&amp;#34; , monospace ; line-height: 18px ; font-size: 11px&quot;&gt;&lt;div style=&quot;color: rgb(212 , 212 , 212)&quot;&gt;&lt;font style=&quot;font-size: 11px&quot;&gt;&lt;span style=&quot;color: #9cdcfe&quot;&gt;bracket = sdfBracket.data[0]&lt;/span&gt;&lt;/font&gt;&lt;/div&gt;&lt;div&gt;&lt;font color=&quot;#9cdcfe&quot;&gt;bracketFeedGames&lt;/font&gt;&lt;/div&gt;&lt;div&gt;&lt;font color=&quot;#9cdcfe&quot;&gt;matchups&lt;/font&gt;&lt;/div&gt;&lt;div&gt;&lt;font color=&quot;#9cdcfe&quot;&gt;teams&lt;/font&gt;&lt;/div&gt;&lt;div&gt;&lt;font color=&quot;#9cdcfe&quot;&gt;events&lt;/font&gt;&lt;/div&gt;&lt;div&gt;&lt;font color=&quot;#9cdcfe&quot;&gt;period&lt;/font&gt;&lt;/div&gt;&lt;div style=&quot;color: rgb(212 , 212 , 212)&quot;&gt;&lt;br&gt;&lt;/div&gt;&lt;/div&gt;" style="verticalAlign=top;align=left;overflow=fill;fontSize=12;fontFamily=Helvetica;html=1;strokeColor=#003366;shadow=1;fillColor=#D4E1F5;fontColor=#003366" vertex="1" parent="1">
          <mxGeometry x="490" y="220" width="250" height="150" as="geometry" />
        </mxCell>
        <mxCell id="VF1F4Plbv53C-rskRq-l-132" value="&lt;p style=&quot;margin: 4px 0px 0px ; text-align: center ; text-decoration: underline ; font-size: 11px&quot;&gt;&lt;strong&gt;&lt;font style=&quot;font-size: 11px&quot;&gt;bracketFeedGames&lt;/font&gt;&lt;/strong&gt;&lt;/p&gt;&lt;hr style=&quot;font-size: 11px&quot;&gt;&lt;div style=&quot;background-color: rgb(30 , 30 , 30) ; font-family: &amp;#34;menlo&amp;#34; , &amp;#34;monaco&amp;#34; , &amp;#34;courier new&amp;#34; , monospace ; line-height: 18px ; font-size: 11px&quot;&gt;&lt;div style=&quot;color: rgb(212 , 212 , 212)&quot;&gt;&lt;div style=&quot;font-family: &amp;#34;menlo&amp;#34; , &amp;#34;monaco&amp;#34; , &amp;#34;courier new&amp;#34; , monospace ; font-size: 12px ; line-height: 18px&quot;&gt;&lt;div&gt;&lt;strong style=&quot;color: rgb(0 , 51 , 102) ; font-family: &amp;#34;helvetica&amp;#34; ; font-size: 11px ; text-align: center ; background-color: rgb(248 , 249 , 250)&quot;&gt;&amp;lt;IBracketGroupGameExpanded&amp;gt;&lt;/strong&gt;&lt;span style=&quot;color: #9cdcfe&quot;&gt;&lt;br&gt;&lt;/span&gt;&lt;/div&gt;&lt;div&gt;&lt;span style=&quot;color: #9cdcfe&quot;&gt;gameId&lt;/span&gt;?: &lt;span style=&quot;color: #4ec9b0&quot;&gt;number&lt;/span&gt;&lt;/div&gt;&lt;div&gt;  &lt;span style=&quot;color: #9cdcfe&quot;&gt;period&lt;/span&gt;?: &lt;span style=&quot;color: #4ec9b0&quot;&gt;number&lt;/span&gt;&lt;/div&gt;&lt;div&gt;  &lt;span style=&quot;color: #9cdcfe&quot;&gt;homeScore&lt;/span&gt;?: &lt;span style=&quot;color: #4ec9b0&quot;&gt;number&lt;/span&gt;&lt;/div&gt;&lt;div&gt;  &lt;span style=&quot;color: #9cdcfe&quot;&gt;awayScore&lt;/span&gt;?: &lt;span style=&quot;color: #4ec9b0&quot;&gt;number&lt;/span&gt;&lt;/div&gt;&lt;div&gt;  &lt;span style=&quot;color: #9cdcfe&quot;&gt;homeTeamId&lt;/span&gt;?: &lt;span style=&quot;color: #4ec9b0&quot;&gt;number&lt;/span&gt;&lt;/div&gt;&lt;div&gt;  &lt;span style=&quot;color: #9cdcfe&quot;&gt;awayTeamId&lt;/span&gt;?: &lt;span style=&quot;color: #4ec9b0&quot;&gt;number&lt;/span&gt;&lt;/div&gt;&lt;div&gt;  &lt;span style=&quot;color: #9cdcfe&quot;&gt;timeRemaining&lt;/span&gt;?: &lt;span style=&quot;color: #4ec9b0&quot;&gt;string&lt;/span&gt;&lt;/div&gt;&lt;div&gt;  &lt;span style=&quot;color: #9cdcfe&quot;&gt;advancement&lt;/span&gt;: &lt;span style=&quot;color: #4ec9b0&quot;&gt;Advancement&lt;/span&gt;&lt;/div&gt;&lt;div&gt;  &lt;span style=&quot;color: #9cdcfe&quot;&gt;location&lt;/span&gt;?: &lt;span style=&quot;color: #4ec9b0&quot;&gt;string&lt;/span&gt;&lt;/div&gt;&lt;div&gt;  &lt;span style=&quot;color: #9cdcfe&quot;&gt;gameAbbrev&lt;/span&gt;?: &lt;span style=&quot;color: #4ec9b0&quot;&gt;string&lt;/span&gt;&lt;/div&gt;&lt;div&gt;  &lt;span style=&quot;color: #9cdcfe&quot;&gt;gameParticipants&lt;/span&gt;: &lt;span style=&quot;color: #4ec9b0&quot;&gt;GameParticipant&lt;/span&gt;[]&lt;/div&gt;&lt;div&gt;  &lt;span style=&quot;color: #9cdcfe&quot;&gt;status&lt;/span&gt;?: &lt;span style=&quot;color: #4ec9b0&quot;&gt;GameStatusType&lt;/span&gt;&lt;/div&gt;&lt;div&gt;&lt;div style=&quot;line-height: 18px&quot;&gt;&lt;div&gt;&lt;span style=&quot;color: #9cdcfe&quot;&gt;groupName&lt;/span&gt;: &lt;span style=&quot;color: #4ec9b0&quot;&gt;string&lt;/span&gt;&lt;/div&gt;&lt;div&gt;  &lt;span style=&quot;color: #9cdcfe&quot;&gt;groupPosition&lt;/span&gt;: &lt;span style=&quot;color: #4ec9b0&quot;&gt;Group&lt;/span&gt;[&lt;span style=&quot;color: #ce9178&quot;&gt;&quot;position&quot;&lt;/span&gt;]&lt;/div&gt;&lt;div&gt;  &lt;span style=&quot;color: #9cdcfe&quot;&gt;tournamentRoundName&lt;/span&gt;: &lt;span style=&quot;color: #4ec9b0&quot;&gt;string&lt;/span&gt;&lt;/div&gt;&lt;div&gt;  &lt;span style=&quot;color: #9cdcfe&quot;&gt;tournamentRound&lt;/span&gt;: &lt;span style=&quot;color: #4ec9b0&quot;&gt;number&lt;/span&gt;&lt;/div&gt;&lt;div&gt;  &lt;span style=&quot;color: #9cdcfe&quot;&gt;roundOrdinal&lt;/span&gt;: &lt;span style=&quot;color: #4ec9b0&quot;&gt;number&lt;/span&gt;&lt;/div&gt;&lt;div&gt;  &lt;span style=&quot;color: #9cdcfe&quot;&gt;isPlayin&lt;/span&gt;?: &lt;span style=&quot;color: #4ec9b0&quot;&gt;boolean&lt;/span&gt;&lt;/div&gt;&lt;/div&gt;&lt;/div&gt;&lt;/div&gt;&lt;/div&gt;&lt;/div&gt;" style="verticalAlign=top;align=left;overflow=fill;fontSize=12;fontFamily=Helvetica;html=1;strokeColor=#003366;shadow=1;fillColor=#D4E1F5;fontColor=#003366" vertex="1" parent="1">
          <mxGeometry x="840" width="300" height="370" as="geometry" />
        </mxCell>
        <mxCell id="VF1F4Plbv53C-rskRq-l-133" value="&lt;p style=&quot;margin: 4px 0px 0px ; text-align: center ; text-decoration: underline ; font-size: 11px&quot;&gt;&lt;strong&gt;&lt;font style=&quot;font-size: 11px&quot;&gt;events&lt;/font&gt;&lt;/strong&gt;&lt;/p&gt;&lt;hr style=&quot;font-size: 11px&quot;&gt;&lt;div style=&quot;background-color: rgb(30 , 30 , 30) ; font-family: &amp;#34;menlo&amp;#34; , &amp;#34;monaco&amp;#34; , &amp;#34;courier new&amp;#34; , monospace ; line-height: 18px ; font-size: 11px&quot;&gt;&lt;div style=&quot;color: rgb(212 , 212 , 212)&quot;&gt;&lt;div style=&quot;font-family: &amp;#34;menlo&amp;#34; , &amp;#34;monaco&amp;#34; , &amp;#34;courier new&amp;#34; , monospace ; font-size: 12px ; line-height: 18px&quot;&gt;&lt;div&gt;&lt;strong style=&quot;color: rgb(0 , 51 , 102) ; font-family: &amp;#34;helvetica&amp;#34; ; font-size: 11px ; text-align: center ; background-color: rgb(248 , 249 , 250)&quot;&gt;&amp;lt;&lt;/strong&gt;&lt;span style=&quot;color: rgb(78 , 201 , 176) ; font-family: &amp;#34;menlo&amp;#34; , &amp;#34;monaco&amp;#34; , &amp;#34;courier new&amp;#34; , monospace&quot;&gt;IBracketUtilMatchupEvent&lt;/span&gt;&lt;strong style=&quot;color: rgb(0 , 51 , 102) ; font-family: &amp;#34;helvetica&amp;#34; ; font-size: 11px ; text-align: center ; background-color: rgb(248 , 249 , 250)&quot;&gt;&amp;gt;&lt;/strong&gt;&lt;br&gt;&lt;/div&gt;&lt;div&gt;&lt;div style=&quot;font-family: &amp;#34;menlo&amp;#34; , &amp;#34;monaco&amp;#34; , &amp;#34;courier new&amp;#34; , monospace ; line-height: 18px&quot;&gt;&lt;div&gt;&lt;div style=&quot;line-height: 18px&quot;&gt;&lt;span style=&quot;color: #9cdcfe&quot;&gt;id&lt;/span&gt;: &lt;span style=&quot;color: #4ec9b0&quot;&gt;string&lt;/span&gt;&lt;/div&gt;&lt;/div&gt;&lt;div&gt;  &lt;span style=&quot;color: #9cdcfe&quot;&gt;homeTeamId&lt;/span&gt;: &lt;span style=&quot;color: #4ec9b0&quot;&gt;string&lt;/span&gt;&lt;/div&gt;&lt;div&gt;  &lt;span style=&quot;color: #9cdcfe&quot;&gt;awayTeamId&lt;/span&gt;: &lt;span style=&quot;color: #4ec9b0&quot;&gt;string&lt;/span&gt;&lt;/div&gt;&lt;div&gt;&lt;div style=&quot;line-height: 18px&quot;&gt;&lt;div&gt;&lt;span style=&quot;color: #9cdcfe&quot;&gt;startsAt&lt;/span&gt;: &lt;span style=&quot;color: #4ec9b0&quot;&gt;number&lt;/span&gt;&lt;/div&gt;&lt;div&gt;  &lt;span style=&quot;color: #9cdcfe&quot;&gt;homeTeamScore&lt;/span&gt;: &lt;span style=&quot;color: #4ec9b0&quot;&gt;number&lt;/span&gt;&lt;/div&gt;&lt;div&gt;  &lt;span style=&quot;color: #9cdcfe&quot;&gt;awayTeamScore&lt;/span&gt;: &lt;span style=&quot;color: #4ec9b0&quot;&gt;number&lt;/span&gt;&lt;/div&gt;&lt;div&gt;  &lt;span style=&quot;color: #9cdcfe&quot;&gt;gameStatusDesc&lt;/span&gt;?: &lt;span style=&quot;color: #4ec9b0&quot;&gt;string&lt;/span&gt; | &lt;span style=&quot;color: #4ec9b0&quot;&gt;null&lt;/span&gt;&lt;/div&gt;&lt;div&gt;  &lt;span style=&quot;color: #9cdcfe&quot;&gt;winningTeamId&lt;/span&gt;: &lt;span style=&quot;color: #4ec9b0&quot;&gt;string&lt;/span&gt; | &lt;span style=&quot;color: #4ec9b0&quot;&gt;null&lt;/span&gt;&lt;/div&gt;&lt;div&gt;  &lt;span style=&quot;color: #9cdcfe&quot;&gt;gamePeriod&lt;/span&gt;?: &lt;span style=&quot;color: #4ec9b0&quot;&gt;number&lt;/span&gt; | &lt;span style=&quot;color: #4ec9b0&quot;&gt;null&lt;/span&gt;&lt;/div&gt;&lt;div&gt;  &lt;span style=&quot;color: #9cdcfe&quot;&gt;timeRemaining&lt;/span&gt;?: &lt;span style=&quot;color: #4ec9b0&quot;&gt;string&lt;/span&gt; | &lt;span style=&quot;color: #4ec9b0&quot;&gt;null&lt;/span&gt;&lt;/div&gt;&lt;div&gt;  &lt;span style=&quot;color: #9cdcfe&quot;&gt;tvInfoName&lt;/span&gt;?: &lt;span style=&quot;color: #4ec9b0&quot;&gt;string&lt;/span&gt; | &lt;span style=&quot;color: #4ec9b0&quot;&gt;null&lt;/span&gt;&lt;/div&gt;&lt;div&gt;  &lt;span style=&quot;color: #9cdcfe&quot;&gt;gameAbbrev&lt;/span&gt;?: &lt;span style=&quot;color: #4ec9b0&quot;&gt;string&lt;/span&gt;&lt;/div&gt;&lt;div&gt;&lt;/div&gt;&lt;/div&gt;&lt;/div&gt;&lt;div&gt;&lt;/div&gt;&lt;/div&gt;&lt;/div&gt;&lt;/div&gt;&lt;/div&gt;&lt;/div&gt;" style="verticalAlign=top;align=left;overflow=fill;fontSize=12;fontFamily=Helvetica;html=1;strokeColor=#003366;shadow=1;fillColor=#D4E1F5;fontColor=#003366" vertex="1" parent="1">
          <mxGeometry x="1170" width="300" height="270" as="geometry" />
        </mxCell>
        <mxCell id="VF1F4Plbv53C-rskRq-l-134" value="&lt;p style=&quot;margin: 4px 0px 0px ; text-align: center ; text-decoration: underline ; font-size: 11px&quot;&gt;&lt;strong&gt;&lt;font style=&quot;font-size: 11px&quot;&gt;matchup&lt;/font&gt;&lt;/strong&gt;&lt;/p&gt;&lt;hr style=&quot;font-size: 11px&quot;&gt;&lt;div style=&quot;background-color: rgb(30 , 30 , 30) ; font-family: &amp;#34;menlo&amp;#34; , &amp;#34;monaco&amp;#34; , &amp;#34;courier new&amp;#34; , monospace ; line-height: 18px ; font-size: 11px&quot;&gt;&lt;div style=&quot;color: rgb(212 , 212 , 212)&quot;&gt;&lt;div style=&quot;font-family: &amp;#34;menlo&amp;#34; , &amp;#34;monaco&amp;#34; , &amp;#34;courier new&amp;#34; , monospace ; font-size: 12px ; line-height: 18px&quot;&gt;&lt;div&gt;&lt;strong style=&quot;color: rgb(0 , 51 , 102) ; font-family: &amp;#34;helvetica&amp;#34; ; font-size: 11px ; text-align: center ; background-color: rgb(248 , 249 , 250)&quot;&gt;&amp;lt;&lt;/strong&gt;&lt;span style=&quot;color: rgb(78 , 201 , 176) ; font-family: &amp;#34;menlo&amp;#34; , &amp;#34;monaco&amp;#34; , &amp;#34;courier new&amp;#34; , monospace&quot;&gt;IBracketUtilMatchupEvent&lt;/span&gt;&lt;strong style=&quot;color: rgb(0 , 51 , 102) ; font-family: &amp;#34;helvetica&amp;#34; ; font-size: 11px ; text-align: center ; background-color: rgb(248 , 249 , 250)&quot;&gt;&amp;gt;&lt;/strong&gt;&lt;br&gt;&lt;/div&gt;&lt;div&gt;&lt;div style=&quot;font-family: &amp;#34;menlo&amp;#34; , &amp;#34;monaco&amp;#34; , &amp;#34;courier new&amp;#34; , monospace ; line-height: 18px&quot;&gt;&lt;div&gt;&lt;div style=&quot;line-height: 18px&quot;&gt;&lt;span style=&quot;color: #9cdcfe&quot;&gt;id&lt;/span&gt;: &lt;span style=&quot;color: #4ec9b0&quot;&gt;string&lt;/span&gt;&lt;/div&gt;&lt;/div&gt;&lt;div&gt;  &lt;span style=&quot;color: #9cdcfe&quot;&gt;homeTeamId&lt;/span&gt;: &lt;span style=&quot;color: #4ec9b0&quot;&gt;string&lt;/span&gt;&lt;/div&gt;&lt;div&gt;  &lt;span style=&quot;color: #9cdcfe&quot;&gt;awayTeamId&lt;/span&gt;: &lt;span style=&quot;color: #4ec9b0&quot;&gt;string&lt;/span&gt;&lt;/div&gt;&lt;div&gt;&lt;div style=&quot;line-height: 18px&quot;&gt;&lt;div&gt;&lt;span style=&quot;color: #9cdcfe&quot;&gt;startsAt&lt;/span&gt;: &lt;span style=&quot;color: #4ec9b0&quot;&gt;number&lt;/span&gt;&lt;/div&gt;&lt;div&gt;  &lt;span style=&quot;color: #9cdcfe&quot;&gt;homeTeamScore&lt;/span&gt;: &lt;span style=&quot;color: #4ec9b0&quot;&gt;number&lt;/span&gt;&lt;/div&gt;&lt;div&gt;  &lt;span style=&quot;color: #9cdcfe&quot;&gt;awayTeamScore&lt;/span&gt;: &lt;span style=&quot;color: #4ec9b0&quot;&gt;number&lt;/span&gt;&lt;/div&gt;&lt;div&gt;  &lt;span style=&quot;color: #9cdcfe&quot;&gt;gameStatusDesc&lt;/span&gt;?: &lt;span style=&quot;color: #4ec9b0&quot;&gt;string&lt;/span&gt; | &lt;span style=&quot;color: #4ec9b0&quot;&gt;null&lt;/span&gt;&lt;/div&gt;&lt;div&gt;  &lt;span style=&quot;color: #9cdcfe&quot;&gt;winningTeamId&lt;/span&gt;: &lt;span style=&quot;color: #4ec9b0&quot;&gt;string&lt;/span&gt; | &lt;span style=&quot;color: #4ec9b0&quot;&gt;null&lt;/span&gt;&lt;/div&gt;&lt;div&gt;  &lt;span style=&quot;color: #9cdcfe&quot;&gt;gamePeriod&lt;/span&gt;?: &lt;span style=&quot;color: #4ec9b0&quot;&gt;number&lt;/span&gt; | &lt;span style=&quot;color: #4ec9b0&quot;&gt;null&lt;/span&gt;&lt;/div&gt;&lt;div&gt;  &lt;span style=&quot;color: #9cdcfe&quot;&gt;timeRemaining&lt;/span&gt;?: &lt;span style=&quot;color: #4ec9b0&quot;&gt;string&lt;/span&gt; | &lt;span style=&quot;color: #4ec9b0&quot;&gt;null&lt;/span&gt;&lt;/div&gt;&lt;div&gt;  &lt;span style=&quot;color: #9cdcfe&quot;&gt;tvInfoName&lt;/span&gt;?: &lt;span style=&quot;color: #4ec9b0&quot;&gt;string&lt;/span&gt; | &lt;span style=&quot;color: #4ec9b0&quot;&gt;null&lt;/span&gt;&lt;/div&gt;&lt;div&gt;  &lt;span style=&quot;color: #9cdcfe&quot;&gt;gameAbbrev&lt;/span&gt;?: &lt;span style=&quot;color: #4ec9b0&quot;&gt;string&lt;/span&gt;&lt;/div&gt;&lt;div&gt;&lt;/div&gt;&lt;/div&gt;&lt;/div&gt;&lt;div&gt;&lt;/div&gt;&lt;/div&gt;&lt;/div&gt;&lt;/div&gt;&lt;/div&gt;&lt;/div&gt;" style="verticalAlign=top;align=left;overflow=fill;fontSize=12;fontFamily=Helvetica;html=1;strokeColor=#003366;shadow=1;fillColor=#D4E1F5;fontColor=#003366" vertex="1" parent="1">
          <mxGeometry x="1500" width="300" height="270" as="geometry" />
        </mxCell>
      </root>
    </mxGraphModel>
  </diagram>
</mxfile>
